# xmcd CD database file
#
# Track frame offsets:
#	150
#	23489
#	38131
#	62152
#	82784
#	106708
#	120280
#	139882
#	160403
#	183742
#	214496
#	248301
#	269344
#	292498
#
# Disc length: 4211 seconds
#
# Revision: 0
# Processed by: cddbd v1.4PL0 Copyright (c) Steve Scherf et al.
# Submitted via: CDex 1.50beta9
#
DISCID=c310710e
DTITLE=Various Artist - Moderato 4
DYEAR=1900
DGENRE=Salsa
TTITLE0=Trucutu
TTITLE1=Rumberos De Ayer
TTITLE2=Oye Rumberito
TTITLE3=Margoth
TTITLE4=Parece Mentira
TTITLE5=Soy El Mejor
TTITLE6=La Suegra
TTITLE7=Quitate La Mascara
TTITLE8=La Misma Quimica
TTITLE9=Ave Maria
TTITLE10=Que Humanidad
TTITLE11=Doble O Nada
TTITLE12=Se Traba
TTITLE13=Feo Pero Sabroso
EXTD=
EXTT0=
EXTT1=
EXTT2=
EXTT3=
EXTT4=
EXTT5=
EXTT6=
EXTT7=
EXTT8=
EXTT9=
EXTT10=
EXTT11=
EXTT12=
EXTT13=
PLAYORDER=
